<svg width="40" height="40" viewBox="0 0 40 40" fill="none" xmlns="http://www.w3.org/2000/svg">
<g clip-path="url(#clip0_714_1163)">
<path d="M40 20C40 8.9725 31.0275 -1.35626e-06 20 -8.74228e-07C8.9725 -3.922e-07 -1.35626e-06 8.9725 -8.74228e-07 20C-3.922e-07 31.0275 8.9725 40 20 40C31.0275 40 40 31.0275 40 20ZM1.25 20C1.25 9.66125 9.66125 1.25 20 1.25C30.3387 1.25 38.75 9.66125 38.75 20C38.75 30.3387 30.3387 38.75 20 38.75C9.66125 38.75 1.25 30.3387 1.25 20Z" fill="#808184"/>
<path d="M26.5002 23.4696C26.6227 23.3471 26.6827 23.1871 26.6827 23.0271C26.6827 22.8671 26.6214 22.7071 26.5002 22.5846L20.4427 16.5271C20.1989 16.2833 19.8027 16.2833 19.5589 16.5271L13.5002 22.5858C13.2564 22.8296 13.2564 23.2258 13.5002 23.4696C13.7439 23.7133 14.1402 23.7133 14.3839 23.4696L20.0002 17.8546L25.6164 23.4696C25.8602 23.7146 26.2552 23.7146 26.5002 23.4696Z" fill="#808184"/>
</g>
<defs>
<clipPath id="clip0_714_1163">
<rect width="40" height="40" fill="white" transform="translate(0 40) rotate(-90)"/>
</clipPath>
</defs>
</svg>
