<svg width="150" height="72" viewBox="0 0 150 72" fill="none" xmlns="http://www.w3.org/2000/svg">
<path d="M33.96 50.16C33.224 50.16 32.856 49.76 32.856 48.96C32.856 48.352 33.016 47.712 33.336 47.04L36.744 39.6C37 39.056 37.352 38.336 37.8 37.44C38.248 36.512 38.792 35.392 39.432 34.08C39.496 33.952 39.56 33.808 39.624 33.648C39.72 33.488 39.816 33.328 39.912 33.168C40.104 32.816 40.296 32.432 40.488 32.016L41.064 30.816C41.672 29.536 42.2 28.528 42.648 27.792C43.128 27.024 43.656 26.448 44.232 26.064C44.968 25.616 45.432 25.392 45.624 25.392C45.848 25.392 46.088 25.616 46.344 26.064C46.344 26.096 46.344 26.112 46.344 26.112C46.376 26.112 46.392 26.128 46.392 26.16C46.392 26.352 46.248 26.672 45.96 27.12C45.768 27.408 45.496 27.808 45.144 28.32C44.824 28.8 44.424 29.392 43.944 30.096C42.184 32.624 40.68 34.912 39.432 36.96C38.216 39.008 37.192 41.072 36.36 43.152C37.16 42.448 38.008 41.744 38.904 41.04C39.832 40.336 40.616 39.792 41.256 39.408C42.152 38.896 42.936 38.64 43.608 38.64C44.632 38.64 45.144 39.312 45.144 40.656C45.144 42.128 44.712 43.472 43.848 44.688C42.984 45.872 41.784 46.912 40.248 47.808C38.744 48.672 37.032 49.376 35.112 49.92C34.696 50.08 34.312 50.16 33.96 50.16ZM35.64 48.432C36.824 48.432 38.008 48.032 39.192 47.232C40.376 46.464 41.336 45.536 42.072 44.448C42.84 43.328 43.224 42.336 43.224 41.472C43.224 40.928 43.048 40.48 42.696 40.128C42.408 40.064 41.848 40.272 41.016 40.752C40.184 41.2 39.288 41.808 38.328 42.576C37.4 43.312 36.568 44.08 35.832 44.88C35.192 46.832 34.936 48 35.064 48.384L35.64 48.432ZM53.1199 49.296C53.0559 49.296 52.9919 49.28 52.9279 49.248C52.8639 49.248 52.7999 49.232 52.7359 49.2C52.2879 48.976 51.9999 48.656 51.8719 48.24C51.7439 47.824 51.7119 47.296 51.7759 46.656C51.8399 46.4 51.9039 45.952 51.9679 45.312C52.0639 44.672 52.1759 44.16 52.3039 43.776L49.8559 46.128L48.5119 47.424C47.5839 48.352 46.8159 48.816 46.2079 48.816C45.9519 48.816 45.7439 48.72 45.5839 48.528C45.2959 48.176 45.1519 47.744 45.1519 47.232C45.1519 46.56 45.3279 45.84 45.6799 45.072C46.0319 44.304 46.4479 43.568 46.9279 42.864C47.4079 42.128 47.8399 41.52 48.2239 41.04C49.1839 39.856 50.1119 38.928 51.0079 38.256C51.9359 37.584 52.8959 37.248 53.8879 37.248C54.4319 37.248 54.9599 37.344 55.4719 37.536C56.0159 37.728 56.5119 38.048 56.9599 38.496L57.0079 38.544C57.0079 38.64 56.9279 38.736 56.7679 38.832C56.7039 38.896 56.6399 38.944 56.5759 38.976C56.5439 39.008 56.5119 39.04 56.4799 39.072C56.0959 39.456 55.6639 40.096 55.1839 40.992C54.7039 41.888 54.2879 42.832 53.9359 43.824C53.5839 44.784 53.4079 45.616 53.4079 46.32C53.4079 46.96 53.5679 47.392 53.8879 47.616C54.0479 47.712 54.2239 47.76 54.4159 47.76C54.8319 47.76 55.4079 47.504 56.1439 46.992C56.1759 46.96 56.2399 46.912 56.3359 46.848C56.4639 46.752 56.6399 46.624 56.8639 46.464C57.1199 46.272 57.3279 46.176 57.4879 46.176C57.6479 46.176 57.7279 46.24 57.7279 46.368C57.7279 46.56 57.5999 46.784 57.3439 47.04C57.1519 47.2 56.9279 47.376 56.6719 47.568C56.4479 47.76 56.1759 47.952 55.8559 48.144C55.3759 48.496 54.8799 48.768 54.3679 48.96C53.8559 49.184 53.4399 49.296 53.1199 49.296ZM47.6959 46.224C48.3679 46.224 49.6159 45.232 51.4399 43.248C51.9199 42.704 52.3519 42.192 52.7359 41.712C53.1199 41.2 53.4719 40.704 53.7919 40.224C54.3679 39.296 54.5599 38.656 54.3679 38.304C54.2719 38.112 54.0799 38.016 53.7919 38.016C53.4399 38.016 52.9599 38.208 52.3519 38.592C51.7439 38.944 51.1199 39.408 50.4799 39.984C49.8719 40.56 49.3119 41.136 48.7999 41.712C48.4479 42.16 48.0959 42.784 47.7439 43.584C47.3919 44.384 47.2159 45.04 47.2159 45.552C47.2159 46 47.3759 46.224 47.6959 46.224ZM58.9946 48.768C58.4186 48.768 58.1306 48.544 58.1306 48.096C58.1306 47.808 58.2266 47.44 58.4186 46.992C58.6426 46.544 58.8666 46.112 59.0906 45.696C59.6986 44.608 60.2586 43.552 60.7706 42.528C61.2826 41.504 61.7786 40.416 62.2586 39.264C62.4826 38.752 62.8186 38.496 63.2666 38.496C63.7466 38.496 63.8906 38.784 63.6986 39.36C63.5066 39.84 63.3146 40.272 63.1226 40.656C62.2266 42.48 61.7786 43.712 61.7786 44.352C61.7786 44.64 61.8746 44.816 62.0666 44.88C62.5146 44.528 62.8506 44.272 63.0746 44.112C63.2986 43.92 63.4266 43.808 63.4586 43.776C63.9066 43.424 64.4026 43.024 64.9466 42.576C65.5226 42.096 66.1466 41.552 66.8186 40.944C67.8746 39.984 68.7546 39.504 69.4586 39.504C70.3226 39.504 70.6906 40.288 70.5626 41.856C70.5306 42.464 70.5306 43.056 70.5626 43.632C70.5946 43.76 70.6106 43.952 70.6106 44.208C70.6106 44.432 70.6106 44.704 70.6106 45.024C70.6106 45.344 70.8026 45.504 71.1866 45.504C71.6346 45.504 72.0506 45.376 72.4346 45.12L73.4906 44.4L74.5466 43.728C74.6106 43.696 74.7226 43.68 74.8826 43.68C75.0746 43.68 75.0746 43.824 74.8826 44.112C72.8666 46.608 71.2026 47.856 69.8906 47.856C69.6346 47.856 69.3786 47.808 69.1226 47.712C68.8986 47.616 68.7386 47.344 68.6426 46.896C68.5466 46.416 68.4826 45.904 68.4506 45.36C68.4506 44.816 68.4506 44.4 68.4506 44.112L68.4986 42.528C68.4986 41.856 68.3226 41.52 67.9706 41.52C67.1386 41.52 65.0906 43.232 61.8266 46.656C61.5706 46.976 61.1706 47.408 60.6266 47.952C60.0826 48.496 59.5386 48.768 58.9946 48.768ZM77.1814 48.96C76.4134 48.96 75.8214 48.72 75.4054 48.24C75.0214 47.792 74.8294 47.2 74.8294 46.464C74.8294 45.152 75.3094 43.872 76.2694 42.624C77.0374 41.632 77.8854 40.736 78.8134 39.936C79.7734 39.104 80.7014 38.448 81.5974 37.968C82.5254 37.456 83.3094 37.2 83.9494 37.2C84.5574 37.2 84.9574 37.456 85.1494 37.968C85.2774 38.224 85.3414 38.528 85.3414 38.88C85.3414 39.52 85.1014 39.84 84.6214 39.84C84.3974 39.84 84.1894 39.744 83.9974 39.552C83.8374 39.328 83.7574 39.024 83.7574 38.64C83.4054 38.48 82.9254 38.56 82.3174 38.88C81.7414 39.168 81.1334 39.6 80.4934 40.176C79.8534 40.72 79.2454 41.312 78.6694 41.952C78.0934 42.56 77.6454 43.088 77.3254 43.536C76.7494 44.336 76.4614 45.216 76.4614 46.176C76.4614 46.624 76.5734 46.992 76.7974 47.28C77.0214 47.568 77.3574 47.712 77.8054 47.712C78.2214 47.712 78.7174 47.584 79.2934 47.328C79.7094 47.104 80.0934 46.896 80.4454 46.704C80.8294 46.512 81.1814 46.336 81.5014 46.176C83.4854 45.056 84.6054 44.496 84.8614 44.496C84.9574 44.496 85.0054 44.544 85.0054 44.64C85.0054 44.736 84.9254 44.864 84.7654 45.024C84.4454 45.312 83.9334 45.712 83.2294 46.224C82.5254 46.736 81.7734 47.216 80.9734 47.664C80.1734 48.112 79.4374 48.448 78.7654 48.672C78.1574 48.864 77.6294 48.96 77.1814 48.96ZM85.7468 50.832C85.0747 50.832 84.7867 50.496 84.8827 49.824C85.0747 48.608 85.4108 47.392 85.8908 46.176C86.1468 45.536 86.4668 44.8 86.8508 43.968C87.2668 43.136 87.7468 42.208 88.2908 41.184C88.5788 40.64 88.8188 40.16 89.0108 39.744C89.2348 39.328 89.4108 38.992 89.5388 38.736C89.7628 38.288 89.9868 37.808 90.2108 37.296C90.4668 36.784 90.7228 36.224 90.9788 35.616C92.1948 32.96 93.2348 30.88 94.0988 29.376C94.9948 27.84 95.9548 26.752 96.9788 26.112C97.0428 26.048 97.2188 26.048 97.5068 26.112C97.7948 26.144 98.0668 26.208 98.3228 26.304C98.6108 26.4 98.7868 26.512 98.8508 26.64C98.9468 26.864 98.9948 27.184 98.9948 27.6C98.9948 28.88 98.4028 30.416 97.2188 32.208C96.5788 33.168 95.7628 34.224 94.7708 35.376C93.8108 36.496 92.6748 37.712 91.3628 39.024L90.4988 40.416C89.5388 41.952 88.7868 43.264 88.2428 44.352C87.7308 45.44 87.5388 46.4 87.6668 47.232C87.7308 47.424 87.8108 47.52 87.9068 47.52C88.0028 47.52 88.1628 47.44 88.3867 47.28C88.6108 47.12 88.8348 46.928 89.0588 46.704C89.3148 46.48 89.5548 46.208 89.7788 45.888C89.9388 45.728 90.0668 45.552 90.1628 45.36C90.2908 45.168 90.4188 44.992 90.5468 44.832C90.7388 44.48 90.9308 44.192 91.1228 43.968C91.7308 42.944 92.2428 42.224 92.6588 41.808C93.3628 41.104 93.9868 40.752 94.5308 40.752C95.1708 40.752 95.7308 41.104 96.2108 41.808C96.7228 42.48 97.2668 43.456 97.8428 44.736C98.2588 45.696 98.6428 46.432 98.9948 46.944C99.3468 47.424 99.6828 47.664 100.003 47.664C100.323 47.664 100.691 47.472 101.107 47.088C101.491 46.736 101.827 46.544 102.115 46.512C102.307 46.736 102.291 47.024 102.067 47.376C101.843 47.696 101.507 48 101.059 48.288C100.643 48.608 100.227 48.864 99.8108 49.056C99.3948 49.248 99.0748 49.312 98.8508 49.248C97.9548 48.992 97.2508 48.544 96.7388 47.904C96.2588 47.232 95.7788 46.368 95.2988 45.312C95.1388 44.96 94.9948 44.656 94.8668 44.4C94.7388 44.112 94.6108 43.888 94.4828 43.728C94.2588 43.408 93.9548 43.248 93.5708 43.248C93.2828 43.248 92.9468 43.392 92.5628 43.68C92.1788 44 91.7948 44.384 91.4108 44.832C91.0268 45.248 90.6588 45.76 90.3068 46.368C90.0828 46.688 89.9068 46.944 89.7788 47.136C89.6828 47.296 89.6028 47.408 89.5388 47.472C89.3788 47.696 89.1228 48.016 88.7708 48.432C88.4508 48.88 88.0668 49.424 87.6188 50.064C87.4588 50.256 87.2028 50.432 86.8508 50.592C86.5308 50.752 86.2108 50.832 85.8908 50.832H85.7468ZM91.6028 37.056C91.6988 37.12 91.9388 36.976 92.3228 36.624C92.7068 36.24 93.1388 35.76 93.6188 35.184C94.1308 34.576 94.6268 33.952 95.1068 33.312C95.6188 32.64 96.0188 32.048 96.3068 31.536C97.2988 29.84 97.7948 28.72 97.7948 28.176C97.7948 27.952 97.7148 27.792 97.5547 27.696C97.2348 27.44 96.8028 27.584 96.2588 28.128C95.7148 28.64 95.1708 29.328 94.6268 30.192C94.0828 31.024 93.6188 31.856 93.2348 32.688C93.0108 33.2 92.7708 33.776 92.5148 34.416C92.2908 35.056 92.0988 35.632 91.9388 36.144C91.7788 36.624 91.6668 36.928 91.6028 37.056ZM110.729 49.296C110.665 49.296 110.601 49.28 110.537 49.248C110.473 49.248 110.409 49.232 110.345 49.2C109.897 48.976 109.609 48.656 109.481 48.24C109.353 47.824 109.321 47.296 109.385 46.656C109.449 46.4 109.513 45.952 109.577 45.312C109.673 44.672 109.785 44.16 109.913 43.776L107.465 46.128L106.121 47.424C105.193 48.352 104.425 48.816 103.817 48.816C103.561 48.816 103.353 48.72 103.193 48.528C102.905 48.176 102.761 47.744 102.761 47.232C102.761 46.56 102.937 45.84 103.289 45.072C103.641 44.304 104.057 43.568 104.537 42.864C105.017 42.128 105.449 41.52 105.833 41.04C106.793 39.856 107.721 38.928 108.617 38.256C109.545 37.584 110.505 37.248 111.497 37.248C112.041 37.248 112.569 37.344 113.081 37.536C113.625 37.728 114.121 38.048 114.569 38.496L114.617 38.544C114.617 38.64 114.537 38.736 114.377 38.832C114.313 38.896 114.249 38.944 114.185 38.976C114.153 39.008 114.121 39.04 114.089 39.072C113.705 39.456 113.273 40.096 112.793 40.992C112.313 41.888 111.897 42.832 111.545 43.824C111.193 44.784 111.017 45.616 111.017 46.32C111.017 46.96 111.177 47.392 111.497 47.616C111.657 47.712 111.833 47.76 112.025 47.76C112.441 47.76 113.017 47.504 113.753 46.992C113.785 46.96 113.849 46.912 113.945 46.848C114.073 46.752 114.249 46.624 114.473 46.464C114.729 46.272 114.937 46.176 115.097 46.176C115.257 46.176 115.337 46.24 115.337 46.368C115.337 46.56 115.209 46.784 114.953 47.04C114.761 47.2 114.537 47.376 114.281 47.568C114.057 47.76 113.785 47.952 113.465 48.144C112.985 48.496 112.489 48.768 111.977 48.96C111.465 49.184 111.049 49.296 110.729 49.296ZM105.305 46.224C105.977 46.224 107.225 45.232 109.049 43.248C109.529 42.704 109.961 42.192 110.345 41.712C110.729 41.2 111.081 40.704 111.401 40.224C111.977 39.296 112.169 38.656 111.977 38.304C111.881 38.112 111.689 38.016 111.401 38.016C111.049 38.016 110.569 38.208 109.961 38.592C109.353 38.944 108.729 39.408 108.089 39.984C107.481 40.56 106.921 41.136 106.409 41.712C106.057 42.16 105.705 42.784 105.353 43.584C105.001 44.384 104.825 45.04 104.825 45.552C104.825 46 104.985 46.224 105.305 46.224ZM120.089 48.288C119.961 48.288 119.865 48.128 119.801 47.808C119.737 47.488 119.705 47.312 119.705 47.28C119.705 47.12 119.753 46.992 119.849 46.896C120.905 46.352 121.561 46.032 121.817 45.936C121.849 45.904 121.913 45.888 122.009 45.888C122.169 45.888 122.201 46.096 122.105 46.512C121.945 47.088 121.865 47.52 121.865 47.808C121.865 47.904 121.769 47.984 121.577 48.048C121.353 48.112 121.081 48.16 120.761 48.192C120.473 48.256 120.249 48.288 120.089 48.288ZM125.106 49.728C124.402 49.728 124.114 48.864 124.242 47.136C124.306 46.752 124.434 46.144 124.626 45.312C124.85 44.48 125.122 43.568 125.442 42.576C125.762 41.552 126.066 40.64 126.354 39.84C126.546 39.296 126.882 38.784 127.362 38.304C127.874 37.824 128.29 37.584 128.61 37.584C128.802 37.584 128.898 37.712 128.898 37.968C128.898 38.32 128.706 38.864 128.322 39.6C127.842 40.496 127.458 41.264 127.17 41.904C126.882 42.512 126.642 43.136 126.45 43.776C126.29 44.384 126.114 45.136 125.922 46.032V46.464C125.922 47.488 126.146 47.808 126.594 47.424C127.426 46.752 128.29 45.968 129.186 45.072C130.082 44.144 130.93 43.216 131.73 42.288C132.53 41.36 133.17 40.544 133.65 39.84C133.97 39.328 134.338 38.944 134.754 38.688C135.202 38.4 135.394 38.352 135.33 38.544C135.298 38.832 135.026 39.36 134.514 40.128C134.034 40.896 133.426 41.76 132.69 42.72C131.986 43.648 131.25 44.544 130.482 45.408C129.746 46.272 129.09 46.944 128.514 47.424C128.29 47.648 127.954 47.936 127.506 48.288C127.09 48.672 126.658 49.008 126.21 49.296C125.762 49.584 125.394 49.728 125.106 49.728ZM133.479 48.768C132.903 48.768 132.615 48.544 132.615 48.096C132.615 47.808 132.711 47.44 132.903 46.992C133.127 46.544 133.351 46.112 133.575 45.696C134.183 44.608 134.743 43.552 135.255 42.528C135.767 41.504 136.263 40.416 136.743 39.264C136.967 38.752 137.303 38.496 137.751 38.496C138.231 38.496 138.375 38.784 138.183 39.36C137.991 39.84 137.799 40.272 137.607 40.656C136.711 42.48 136.263 43.712 136.263 44.352C136.263 44.64 136.359 44.816 136.551 44.88C136.999 44.528 137.335 44.272 137.559 44.112C137.783 43.92 137.911 43.808 137.943 43.776C138.391 43.424 138.887 43.024 139.431 42.576C140.007 42.096 140.631 41.552 141.303 40.944C142.359 39.984 143.239 39.504 143.943 39.504C144.807 39.504 145.175 40.288 145.047 41.856C145.015 42.464 145.015 43.056 145.047 43.632C145.079 43.76 145.095 43.952 145.095 44.208C145.095 44.432 145.095 44.704 145.095 45.024C145.095 45.344 145.287 45.504 145.671 45.504C146.119 45.504 146.535 45.376 146.919 45.12L147.975 44.4L149.031 43.728C149.095 43.696 149.207 43.68 149.367 43.68C149.559 43.68 149.559 43.824 149.367 44.112C147.351 46.608 145.687 47.856 144.375 47.856C144.119 47.856 143.863 47.808 143.607 47.712C143.383 47.616 143.223 47.344 143.127 46.896C143.031 46.416 142.967 45.904 142.935 45.36C142.935 44.816 142.935 44.4 142.935 44.112L142.983 42.528C142.983 41.856 142.807 41.52 142.455 41.52C141.623 41.52 139.575 43.232 136.311 46.656C136.055 46.976 135.655 47.408 135.111 47.952C134.567 48.496 134.023 48.768 133.479 48.768Z" fill="white"/>
<path d="M24.3714 38.2645C23.8267 37.629 23.3123 36.9935 22.7676 36.3783C21.4261 34.8753 20.0039 33.443 18.6321 31.9703C17.2905 30.5279 16.0196 29.0351 15.0008 27.3405C14.9403 27.2397 14.8798 27.159 14.9302 27.0178C15.7473 25.0105 15.6464 22.9831 15.0714 20.9455C14.5772 19.2409 13.8207 17.6371 13.0137 16.0635C12.3581 14.7926 11.6419 13.562 11.1073 12.2407C10.946 11.8372 10.8249 11.4236 10.7039 11C10.3811 13.1081 10.1794 15.2163 10.1995 17.3446C10.2197 19.4325 10.714 21.349 11.7932 23.1444C12.6002 24.4759 13.4273 25.7872 14.3452 27.0379C14.7588 27.6028 15.0412 28.2483 15.4245 28.8233C16.2718 30.0841 17.2098 31.2643 18.2084 32.4041C18.1076 32.4343 18.0672 32.3637 18.0067 32.3234C16.8265 31.577 15.5153 31.2138 14.1334 31.0726C12.2371 30.8709 10.3609 31.0928 8.49488 31.3954C6.98187 31.6476 5.47895 31.9905 3.95585 32.1519C3.41116 32.2124 2.86648 32.2629 2.28144 32.1721C2.46301 32.3335 2.64457 32.394 2.82613 32.4747C4.87374 33.443 6.97178 34.3004 9.19087 34.8249C10.2096 35.067 11.2385 35.2284 12.2875 35.0972C13.4172 34.956 14.5368 34.7139 15.6464 34.4315C16.7358 34.1491 17.815 33.8061 18.8741 33.4329C18.9952 33.3926 19.086 33.3724 19.1868 33.4834C20.7503 35.2485 22.3642 36.9734 23.736 38.8999C24.2706 39.6464 24.7345 40.4331 25.1683 41.2401C25.249 41.4015 25.2591 41.4721 25.0573 41.5326C20.1451 43.1969 15.5052 45.4261 11.1174 48.1797C8.57558 49.7735 6.17493 51.5487 4.10715 53.7375C3.75411 54.1108 3.42125 54.494 3.04804 54.9076C3.09847 54.6958 3.21951 54.5848 3.31029 54.4537C5.76137 51.1553 8.86809 48.5933 12.3379 46.4347C15.7271 44.3165 19.3684 42.7228 23.1509 41.462C23.4334 41.3712 23.4334 41.3712 23.2619 41.1392C22.5457 40.2213 21.5673 39.8178 20.4477 39.6968C18.622 39.4951 16.8871 39.9389 15.2127 40.5743C11.7832 41.8856 8.79749 43.903 6.15475 46.4247C4.17775 48.3109 2.51344 50.4392 1.3232 52.9205C0.44566 54.7563 -0.0385056 56.693 0.0018425 58.7305C0.0119286 59.4769 0.122883 60.2132 0.324619 61C0.344791 60.5562 0.556614 60.2637 0.778522 59.9812C1.59555 58.9625 2.60422 58.1455 3.57255 57.2982C5.5899 55.5431 7.99054 54.5243 10.4921 53.7174C12.3379 53.1223 14.204 52.6078 16.0095 51.9018C17.9058 51.1654 19.7315 50.3181 21.3454 49.0573C21.9909 48.553 22.5558 47.9679 23.04 47.3022C23.9377 46.0615 24.2605 44.6897 24.0688 43.1868C24.0587 43.0859 24.0486 43.0153 24.1697 42.9851C24.6639 42.8338 25.1582 42.7329 25.6827 42.7934C25.8441 42.8136 25.945 42.864 26.0156 43.0355C26.8931 45.1537 27.5185 47.3325 27.8816 49.602C28.1539 51.2865 28.3859 52.9911 28.9306 54.6252C29.2131 55.4725 29.5762 56.2794 30.0906 57.0157C30.131 57.0662 30.1511 57.1872 30.2419 57.1267C30.3125 57.0863 30.252 57.0056 30.2217 56.9451C29.556 55.5229 29.2938 54.02 29.1223 52.4767C28.9205 50.6813 28.8197 48.8757 28.4364 47.1106C28.0833 45.4664 27.5387 43.8828 26.8326 42.3496C26.4493 41.5225 25.955 40.7458 25.6524 39.8784C24.5832 36.8927 25.0674 34.1693 26.9435 31.6577C28.2548 29.9026 29.8586 28.44 31.5633 27.0682C33.742 25.3131 36.0519 23.7295 38.3012 22.0752C40.2278 20.6631 42.0031 19.0896 43.3547 17.1025C43.9901 16.1342 44.5449 15.1457 44.7265 13.9857C44.7971 13.5217 44.8374 13.0476 44.6256 12.5937C44.5348 12.856 44.3331 13.0274 44.1314 13.1888C41.4685 15.2667 38.6341 17.0319 35.4265 18.1616C33.3587 18.8878 31.2607 19.5737 29.2635 20.4715C27.5387 21.2481 25.9046 22.1559 24.5025 23.447C23.1307 24.7281 22.1422 26.231 21.8195 28.1273C21.5673 29.61 21.769 31.0525 22.2734 32.4545C22.7374 33.7456 23.4233 34.9157 24.2907 35.9748C24.3412 36.0353 24.4118 36.0958 24.4017 36.1866C24.321 36.8826 24.3311 37.5685 24.3714 38.2645Z" fill="white"/>
</svg>
