<?xml version="1.0" encoding="utf-8"?>
<!-- Generator: Adobe Illustrator 27.5.0, SVG Export Plug-In . SVG Version: 6.00 Build 0)  -->
<svg version="1.1" id="Layer_1" xmlns="http://www.w3.org/2000/svg" xmlns:xlink="http://www.w3.org/1999/xlink" x="0px" y="0px"
	 viewBox="0 0 800 800" style="enable-background:new 0 0 800 800;" xml:space="preserve">
<style type="text/css">
	.st0{fill:#815F42;}
</style>
<path class="st0" d="M339.9,195.3l19.8,35.6c17.9,32.2,10.7,74.3-17.5,102.5l0,0c0,0-34.3,34.3,27.8,96.4s96.4,27.9,96.4,27.8l0,0
	c28.3-28.2,70.4-35.5,102.5-17.5l35.6,19.8c48.5,27.1,54.3,95.2,11.6,137.8c-25.6,25.6-57,45.6-91.8,46.9
	c-58.4,2.2-157.6-12.6-257.2-112.1C167.6,433,152.9,333.8,155.1,275.3c1.3-34.7,21.2-66.1,46.9-91.8
	C244.7,141,312.8,146.8,339.9,195.3z"/>
</svg>
