<?xml version="1.0" encoding="utf-8"?>
<!-- Generator: Adobe Illustrator 27.5.0, SVG Export Plug-In . SVG Version: 6.00 Build 0)  -->
<svg version="1.1" id="Layer_1" xmlns="http://www.w3.org/2000/svg" xmlns:xlink="http://www.w3.org/1999/xlink" x="0px" y="0px"
	 viewBox="0 0 800 800" style="enable-background:new 0 0 800 800;" xml:space="preserve">
<style type="text/css">
	.st0{fill-rule:evenodd;clip-rule:evenodd;fill:#815F42;}
</style>
<g id="style_x3D_fill">
	<g id="email">
		<path id="Subtract" class="st0" d="M283.7,184.8c-37.5,0-71.5,9.4-96.1,32.3c-24.9,23.1-37.5,57.4-37.5,101.5v162.8
			c0,44,12.7,78.4,37.5,101.5c24.6,22.9,58.6,32.3,96.1,32.3h232.7c37.5,0,71.5-9.4,96.1-32.3c24.9-23.1,37.5-57.4,37.5-101.5V318.6
			c0-44-12.7-78.4-37.5-101.5c-24.6-22.9-58.6-32.3-96.1-32.3L283.7,184.8L283.7,184.8z M568.2,315.3c7.6-5.9,9-16.8,3.2-24.5
			c-5.9-7.6-16.8-9-24.5-3.2l-129,99.8c-10.5,8.1-25.1,8.1-35.6,0l-129.1-99.7c-7.6-5.9-18.6-4.5-24.5,3.2
			c-5.9,7.6-4.5,18.6,3.2,24.5l129.1,99.7c23,17.8,55.2,17.8,78.2,0L568.2,315.3z"/>
	</g>
</g>
</svg>
