<?xml version="1.0" encoding="utf-8"?>
<!-- Generator: Adobe Illustrator 27.5.0, SVG Export Plug-In . SVG Version: 6.00 Build 0)  -->
<svg version="1.1" id="Layer_1" xmlns="http://www.w3.org/2000/svg" xmlns:xlink="http://www.w3.org/1999/xlink" x="0px" y="0px"
	 viewBox="0 0 800 800" style="enable-background:new 0 0 800 800;" xml:space="preserve">
<style type="text/css">
	.st0{fill:#815F42;}
</style>
<path class="st0" d="M655,398.4c-0.6-48.6-15.1-96-41.7-136.6c-26.7-40.6-64.4-72.9-108.6-92.7s-93.5-26.8-141.5-19.9
	c-48.1,7-93.1,27.6-130,59.5c-36.8,31.7-63.7,73.4-77.5,120.1c-13.9,46.6-14.2,96.1-0.9,142.9s39.8,88.7,76.1,120.9
	s81.2,53.3,129.2,61V472.7h-63.8v-74.3H360v-56.5c-1.4-13.1-0.1-26.4,4.2-38.9c4.2-12.5,11.1-23.9,20.3-33.5
	c9.1-9.5,20.2-16.9,32.5-21.8c12.3-4.8,25.5-6.8,38.6-5.9c19.1,0.3,38.1,2,57.1,5v63.8h-31.9c-5.4-0.6-11.1-0.1-16.3,1.6
	c-5.3,1.7-10,4.7-14.1,8.5c-4,3.8-7,8.5-9,13.8c-1.9,5.1-2.6,10.8-2.1,16.3v48.1h70.8l-11.5,74.3h-59v178.5
	c60.2-9.5,115-40.4,154.6-86.8C633.9,518.5,655.3,459.3,655,398.4z"/>
</svg>
