<svg width="45" height="50" viewBox="0 0 45 50" fill="none" xmlns="http://www.w3.org/2000/svg">
<path d="M24.3719 27.2645C23.8272 26.629 23.3128 25.9935 22.7681 25.3783C21.4266 23.8753 20.0043 22.443 18.6326 20.9703C17.291 19.5279 16.0201 18.0351 15.0013 16.3405C14.9408 16.2397 14.8803 16.159 14.9307 16.0178C15.7477 14.0105 15.6469 11.9831 15.0719 9.94553C14.5777 8.24087 13.8212 6.63708 13.0142 5.06355C12.3586 3.79262 11.6424 2.56203 11.1078 1.24067C10.9464 0.8372 10.8254 0.423643 10.7044 0C10.3816 2.10813 10.1799 4.21626 10.2 6.34456C10.2202 8.43252 10.7145 10.349 11.7937 12.1444C12.6007 13.4759 13.4278 14.7872 14.3457 16.0379C14.7592 16.6028 15.0417 17.2483 15.425 17.8233C16.2723 19.0841 17.2103 20.2643 18.2089 21.4041C18.108 21.4343 18.0677 21.3637 18.0072 21.3234C16.827 20.577 15.5157 20.2138 14.1339 20.0726C12.2376 19.8709 10.3614 20.0928 8.49537 20.3954C6.98236 20.6476 5.47943 20.9905 3.95634 21.1519C3.41165 21.2124 2.86697 21.2629 2.28193 21.1721C2.4635 21.3335 2.64506 21.394 2.82662 21.4747C4.87423 22.443 6.97227 23.3004 9.19136 23.8249C10.2101 24.067 11.239 24.2284 12.288 24.0972C13.4177 23.956 14.5373 23.7139 15.6469 23.4315C16.7362 23.1491 17.8155 22.8061 18.8746 22.4329C18.9957 22.3926 19.0865 22.3724 19.1873 22.4834C20.7508 24.2485 22.3646 25.9734 23.7364 27.8999C24.271 28.6464 24.735 29.4331 25.1688 30.2401C25.2495 30.4015 25.2595 30.4721 25.0578 30.5326C20.1456 32.1969 15.5057 34.4261 11.1179 37.1797C8.57606 38.7735 6.17542 40.5487 4.10764 42.7375C3.7546 43.1108 3.42174 43.494 3.04853 43.9076C3.09896 43.6958 3.22 43.5848 3.31078 43.4537C5.76186 40.1553 8.86858 37.5933 12.3384 35.4347C15.7276 33.3165 19.3689 31.7228 23.1514 30.462C23.4338 30.3712 23.4338 30.3712 23.2624 30.1392C22.5462 29.2213 21.5678 28.8178 20.4482 28.6968C18.6225 28.4951 16.8875 28.9389 15.2131 29.5743C11.7836 30.8856 8.79797 32.903 6.15524 35.4247C4.17824 37.3109 2.51393 39.4392 1.32369 41.9205C0.446147 43.7563 -0.0380177 45.693 0.00232927 47.7305C0.012416 48.4769 0.123371 49.2132 0.325106 50C0.34528 49.5562 0.557102 49.2637 0.77901 48.9812C1.59604 47.9625 2.60471 47.1455 3.57304 46.2982C5.59039 44.5431 7.99103 43.5243 10.4925 42.7174C12.3384 42.1223 14.2045 41.6078 16.01 40.9018C17.9063 40.1654 19.732 39.3181 21.3459 38.0573C21.9914 37.553 22.5563 36.9679 23.0405 36.3022C23.9382 35.0615 24.261 33.6897 24.0693 32.1868C24.0592 32.0859 24.0491 32.0153 24.1702 31.9851C24.6644 31.8338 25.1587 31.7329 25.6832 31.7934C25.8446 31.8136 25.9454 31.864 26.016 32.0355C26.8936 34.1537 27.519 36.3325 27.8821 38.602C28.1544 40.2865 28.3864 41.9911 28.9311 43.6252C29.2135 44.4725 29.5767 45.2794 30.0911 46.0157C30.1314 46.0662 30.1516 46.1872 30.2424 46.1267C30.313 46.0863 30.2525 46.0057 30.2222 45.9451C29.5565 44.5229 29.2942 43.02 29.1228 41.4767C28.921 39.6813 28.8202 37.8757 28.4369 36.1106C28.0838 34.4664 27.5391 32.8828 26.8331 31.3496C26.4498 30.5225 25.9555 29.7458 25.6529 28.8784C24.5837 25.8927 25.0679 23.1693 26.944 20.6577C28.2553 18.9026 29.8591 17.44 31.5638 16.0682C33.7425 14.3131 36.0524 12.7295 38.3017 11.0752C40.2283 9.6631 42.0035 8.08957 43.3552 6.10248C43.9906 5.13415 44.5454 4.14565 44.727 2.98568C44.7976 2.52169 44.8379 2.04761 44.6261 1.59371C44.5353 1.85596 44.3336 2.02744 44.1318 2.18882C41.4689 4.26669 38.6346 6.03187 35.427 7.16159C33.3592 7.88784 31.2612 8.57373 29.264 9.47146C27.5391 10.2481 25.9051 11.1559 24.503 12.447C23.1312 13.7281 22.1427 15.231 21.82 17.1273C21.5678 18.61 21.7695 20.0525 22.2739 21.4545C22.7379 22.7456 23.4238 23.9157 24.2912 24.9748C24.3416 25.0353 24.4123 25.0958 24.4022 25.1866C24.3215 25.8826 24.3316 26.5685 24.3719 27.2645Z" fill="#007135"/>
</svg>
