<svg width="30" height="30" viewBox="0 0 30 30" fill="none" xmlns="http://www.w3.org/2000/svg">
<g clip-path="url(#clip0_714_1167)">
<path d="M25.6646 16.1716C23.6146 16.2385 22.0683 15.1263 20.1892 14.6194C17.8236 13.9815 15.2096 14.5232 13.2402 15.9516C13.2984 15.5844 13.3389 15.2113 13.3589 14.8322C13.5673 10.8786 11.829 7.29449 9.73676 4.07471C9.8058 4.63087 9.90148 5.19027 9.93542 5.74991C10.0175 7.09939 9.42702 8.32918 8.51351 9.2902C7.17438 10.6589 5.40721 11.0305 3.844 11.9982C0.733401 13.9234 -0.839491 18.0519 0.454863 21.5467C1.28692 23.7043 1.68705 24.2424 1.68705 24.2424C1.68705 24.2424 3.73035 24.9219 7.61391 23.3302C8.83882 22.8281 9.84553 22.0256 9.84553 22.0256C10.4098 22.5946 12.2132 24.4078 14.6737 25.3063C18.126 26.5669 21.8156 25.8697 24.6272 23.5003C27.6547 20.949 29.0811 17.2294 29.9999 13.5013C28.8033 14.9388 27.6918 16.1053 25.6646 16.1716ZM2.73184 22.1557C5.01329 19.6948 6.9138 17.2637 8.21006 14.1548C8.26204 17.4088 5.65893 20.8803 2.73184 22.1557ZM12.017 20.7535C15.3732 20.7348 18.4458 20.4598 21.6011 19.2797C19.2599 21.545 14.9508 22.0188 12.017 20.7535Z" fill="black"/>
</g>
<defs>
<clipPath id="clip0_714_1167">
<rect width="30" height="30" fill="white"/>
</clipPath>
</defs>
</svg>
