<?xml version="1.0" encoding="utf-8"?>
<!-- Generator: Adobe Illustrator 27.5.0, SVG Export Plug-In . SVG Version: 6.00 Build 0)  -->
<svg version="1.1" id="Layer_1" xmlns="http://www.w3.org/2000/svg" xmlns:xlink="http://www.w3.org/1999/xlink" x="0px" y="0px"
	 viewBox="0 0 800 800" style="enable-background:new 0 0 800 800;" xml:space="preserve">
<style type="text/css">
	.st0{fill:none;stroke:#815F42;stroke-width:66.6667;stroke-linecap:round;stroke-linejoin:round;stroke-miterlimit:133.3333;}
</style>
<path class="st0" d="M650,400c0,138.1-111.9,250-250,250 M650,400c0-138.1-111.9-250-250-250 M650,400c0,46-111.9,83.3-250,83.3
	S150,446,150,400 M650,400c0-46-111.9-83.3-250-83.3S150,354,150,400 M400,650c-138.1,0-250-111.9-250-250 M400,650
	c-46,0-83.3-111.9-83.3-250S354,150,400,150 M400,650c46,0,83.3-111.9,83.3-250S446,150,400,150 M150,400c0-138.1,111.9-250,250-250
	"/>
</svg>
